<?xml version="1.0" standalone="no"?>
<!DOCTYPE svg PUBLIC "-//W3C//DTD SVG 20010904//EN"
 "http://www.w3.org/TR/2001/REC-SVG-20010904/DTD/svg10.dtd">
<svg version="1.0" xmlns="http://www.w3.org/2000/svg"
 width="605.000000pt" height="605.000000pt" viewBox="0 0 605.000000 605.000000"
 preserveAspectRatio="xMidYMid meet">

<g transform="translate(0.000000,605.000000) scale(0.100000,-0.100000)"
fill="#000000" stroke="none">
<path d="M2920 6047 c-3 -3 -44 -7 -91 -8 -88 -2 -136 -7 -314 -35 -479 -76
-948 -284 -1365 -608 -135 -104 -392 -361 -496 -496 -361 -466 -555 -935 -636
-1540 -19 -144 -16 -556 6 -710 47 -342 134 -639 271 -928 274 -576 755 -1077
1318 -1372 721 -379 1564 -454 2327 -208 482 155 887 403 1237 759 483 490
758 1062 855 1779 19 14
4 16 574 -6 730 -79 569 -290 1064 -644 1510 -98 123
-341 366 -464 463 -463 366 -971 576 -1563 646 -100 12 -428 25 -435 18z
m-282 -2375 c317 -97 532 -307 638 -622 l29 -85 3 -717 3 -718 315 -2 316 -3
-118 -155 c-64 -85 -266 -353 -447 -595 -181 -242 -335 -446 -342 -453 -10
-11 -19 -4 -47 35 -19 26 -225 300 -457 608 l-422 560 310 3 311 2 0 643 c0
624 -1 643 -21 687 -27 60 -74 107 -134 136 l-50 24 -1017 0 -1018 0 0 340 0
341 1038 -3 1037 -3 73 -23z"/>
</g>
</svg>
